# xmcd
#
# Track frame offsets: 
#        150
#        17937
#        36062
#        53880
#        71540
#        90600
#        108865
#        126035
#        142630
#        162300
#
# Disc length: 2444 seconds
#
# Revision: 0
# Processed by: cddbd v1.5.2PL0 Copyright (c) Steve Scherf et al.
# Submitted via: ExactAudioCopy v0.99pb4
#
DISCID=7a098a0a
DTITLE=유리상자 - 사랑 찾기
DYEAR=1998
DGENRE=Ballad
TTITLE0=331
TTITLE1=꼭대기
TTITLE2=당신의 사랑
TTITLE3=아름다운 세상
TTITLE4=아기새의 작은꿈
TTITLE5=처음주신 사랑
TTITLE6=쉼
TTITLE7=팽이
TTITLE8=크리스마스 이른 저녁
TTITLE9=지금의 나
EXTD=
EXTT0=
EXTT1=
EXTT2=
EXTT3=
EXTT4=
EXTT5=
EXTT6=
EXTT7=
EXTT8=
EXTT9=
PLAYORDER=
